<svg width="32" height="33" viewBox="0 0 32 33" fill="none" xmlns="http://www.w3.org/2000/svg">
<path fill-rule="evenodd" clip-rule="evenodd" d="M25.3334 27.1667C24.5961 27.1667 24.0001 26.5707 24.0001 25.8334C24.0001 25.096 24.5961 24.5 25.3334 24.5C26.0707 24.5 26.6667 25.096 26.6667 25.8334C26.6667 26.5707 26.0707 27.1667 25.3334 27.1667ZM25.3334 21.8334C23.1281 21.8334 21.3334 23.628 21.3334 25.8334C21.3334 28.0387 23.1281 29.8334 25.3334 29.8334C27.5387 29.8334 29.3334 28.0387 29.3334 25.8334C29.3334 23.628 27.5387 21.8334 25.3334 21.8334ZM16.0001 27.1667C15.2627 27.1667 14.6667 26.5707 14.6667 25.8334C14.6667 25.096 15.2627 24.5 16.0001 24.5C16.7374 24.5 17.3334 25.096 17.3334 25.8334C17.3334 26.5707 16.7374 27.1667 16.0001 27.1667ZM16.0001 21.8334C13.7947 21.8334 12.0001 23.628 12.0001 25.8334C12.0001 28.0387 13.7947 29.8334 16.0001 29.8334C18.2054 29.8334 20.0001 28.0387 20.0001 25.8334C20.0001 23.628 18.2054 21.8334 16.0001 21.8334ZM6.66675 27.1667C5.92941 27.1667 5.33341 26.5707 5.33341 25.8334C5.33341 25.096 5.92941 24.5 6.66675 24.5C7.40408 24.5 8.00008 25.096 8.00008 25.8334C8.00008 26.5707 7.40408 27.1667 6.66675 27.1667ZM6.66675 21.8334C4.46141 21.8334 2.66675 23.628 2.66675 25.8334C2.66675 28.0387 4.46141 29.8334 6.66675 29.8334C8.87208 29.8334 10.6667 28.0387 10.6667 25.8334C10.6667 23.628 8.87208 21.8334 6.66675 21.8334ZM25.3334 17.8334C24.5961 17.8334 24.0001 17.2374 24.0001 16.5C24.0001 15.7627 24.5961 15.1667 25.3334 15.1667C26.0707 15.1667 26.6667 15.7627 26.6667 16.5C26.6667 17.2374 26.0707 17.8334 25.3334 17.8334ZM25.3334 12.5C23.1281 12.5 21.3334 14.2947 21.3334 16.5C21.3334 18.7054 23.1281 20.5 25.3334 20.5C27.5387 20.5 29.3334 18.7054 29.3334 16.5C29.3334 14.2947 27.5387 12.5 25.3334 12.5ZM16.0001 17.8334C15.2627 17.8334 14.6667 17.2374 14.6667 16.5C14.6667 15.7627 15.2627 15.1667 16.0001 15.1667C16.7374 15.1667 17.3334 15.7627 17.3334 16.5C17.3334 17.2374 16.7374 17.8334 16.0001 17.8334ZM16.0001 12.5C13.7947 12.5 12.0001 14.2947 12.0001 16.5C12.0001 18.7054 13.7947 20.5 16.0001 20.5C18.2054 20.5 20.0001 18.7054 20.0001 16.5C20.0001 14.2947 18.2054 12.5 16.0001 12.5ZM6.66675 17.8334C5.92941 17.8334 5.33341 17.2374 5.33341 16.5C5.33341 15.7627 5.92941 15.1667 6.66675 15.1667C7.40408 15.1667 8.00008 15.7627 8.00008 16.5C8.00008 17.2374 7.40408 17.8334 6.66675 17.8334ZM6.66675 12.5C4.46141 12.5 2.66675 14.2947 2.66675 16.5C2.66675 18.7054 4.46141 20.5 6.66675 20.5C8.87208 20.5 10.6667 18.7054 10.6667 16.5C10.6667 14.2947 8.87208 12.5 6.66675 12.5ZM25.3334 5.83335C26.0707 5.83335 26.6667 6.42935 26.6667 7.16669C26.6667 7.90402 26.0707 8.50002 25.3334 8.50002C24.5961 8.50002 24.0001 7.90402 24.0001 7.16669C24.0001 6.42935 24.5961 5.83335 25.3334 5.83335ZM25.3334 11.1667C27.5387 11.1667 29.3334 9.37202 29.3334 7.16669C29.3334 4.96135 27.5387 3.16669 25.3334 3.16669C23.1281 3.16669 21.3334 4.96135 21.3334 7.16669C21.3334 9.37202 23.1281 11.1667 25.3334 11.1667ZM16.0001 8.50002C15.2627 8.50002 14.6667 7.90269 14.6667 7.16669C14.6667 6.42935 15.2627 5.83335 16.0001 5.83335C16.7374 5.83335 17.3334 6.42935 17.3334 7.16669C17.3334 7.90269 16.7374 8.50002 16.0001 8.50002ZM16.0001 3.16669C13.7947 3.16669 12.0001 4.96135 12.0001 7.16669C12.0001 9.37202 13.7947 11.1667 16.0001 11.1667C18.2054 11.1667 20.0001 9.37202 20.0001 7.16669C20.0001 4.96135 18.2054 3.16669 16.0001 3.16669ZM6.66675 8.50002C5.92941 8.50002 5.33341 7.90402 5.33341 7.16669C5.33341 6.42935 5.92941 5.83335 6.66675 5.83335C7.40408 5.83335 8.00008 6.42935 8.00008 7.16669C8.00008 7.90402 7.40408 8.50002 6.66675 8.50002ZM6.66675 3.16669C4.46141 3.16669 2.66675 4.96135 2.66675 7.16669C2.66675 9.37202 4.46141 11.1667 6.66675 11.1667C8.87208 11.1667 10.6667 9.37202 10.6667 7.16669C10.6667 4.96135 8.87208 3.16669 6.66675 3.16669Z" fill="#03133D"/>
<mask id="mask0_301_998" style="mask-type:luminance" maskUnits="userSpaceOnUse" x="2" y="3" width="28" height="27">
<path fill-rule="evenodd" clip-rule="evenodd" d="M25.3334 27.1667C24.5961 27.1667 24.0001 26.5707 24.0001 25.8334C24.0001 25.096 24.5961 24.5 25.3334 24.5C26.0707 24.5 26.6667 25.096 26.6667 25.8334C26.6667 26.5707 26.0707 27.1667 25.3334 27.1667ZM25.3334 21.8334C23.1281 21.8334 21.3334 23.628 21.3334 25.8334C21.3334 28.0387 23.1281 29.8334 25.3334 29.8334C27.5387 29.8334 29.3334 28.0387 29.3334 25.8334C29.3334 23.628 27.5387 21.8334 25.3334 21.8334ZM16.0001 27.1667C15.2627 27.1667 14.6667 26.5707 14.6667 25.8334C14.6667 25.096 15.2627 24.5 16.0001 24.5C16.7374 24.5 17.3334 25.096 17.3334 25.8334C17.3334 26.5707 16.7374 27.1667 16.0001 27.1667ZM16.0001 21.8334C13.7947 21.8334 12.0001 23.628 12.0001 25.8334C12.0001 28.0387 13.7947 29.8334 16.0001 29.8334C18.2054 29.8334 20.0001 28.0387 20.0001 25.8334C20.0001 23.628 18.2054 21.8334 16.0001 21.8334ZM6.66675 27.1667C5.92941 27.1667 5.33341 26.5707 5.33341 25.8334C5.33341 25.096 5.92941 24.5 6.66675 24.5C7.40408 24.5 8.00008 25.096 8.00008 25.8334C8.00008 26.5707 7.40408 27.1667 6.66675 27.1667ZM6.66675 21.8334C4.46141 21.8334 2.66675 23.628 2.66675 25.8334C2.66675 28.0387 4.46141 29.8334 6.66675 29.8334C8.87208 29.8334 10.6667 28.0387 10.6667 25.8334C10.6667 23.628 8.87208 21.8334 6.66675 21.8334ZM25.3334 17.8334C24.5961 17.8334 24.0001 17.2374 24.0001 16.5C24.0001 15.7627 24.5961 15.1667 25.3334 15.1667C26.0707 15.1667 26.6667 15.7627 26.6667 16.5C26.6667 17.2374 26.0707 17.8334 25.3334 17.8334ZM25.3334 12.5C23.1281 12.5 21.3334 14.2947 21.3334 16.5C21.3334 18.7054 23.1281 20.5 25.3334 20.5C27.5387 20.5 29.3334 18.7054 29.3334 16.5C29.3334 14.2947 27.5387 12.5 25.3334 12.5ZM16.0001 17.8334C15.2627 17.8334 14.6667 17.2374 14.6667 16.5C14.6667 15.7627 15.2627 15.1667 16.0001 15.1667C16.7374 15.1667 17.3334 15.7627 17.3334 16.5C17.3334 17.2374 16.7374 17.8334 16.0001 17.8334ZM16.0001 12.5C13.7947 12.5 12.0001 14.2947 12.0001 16.5C12.0001 18.7054 13.7947 20.5 16.0001 20.5C18.2054 20.5 20.0001 18.7054 20.0001 16.5C20.0001 14.2947 18.2054 12.5 16.0001 12.5ZM6.66675 17.8334C5.92941 17.8334 5.33341 17.2374 5.33341 16.5C5.33341 15.7627 5.92941 15.1667 6.66675 15.1667C7.40408 15.1667 8.00008 15.7627 8.00008 16.5C8.00008 17.2374 7.40408 17.8334 6.66675 17.8334ZM6.66675 12.5C4.46141 12.5 2.66675 14.2947 2.66675 16.5C2.66675 18.7054 4.46141 20.5 6.66675 20.5C8.87208 20.5 10.6667 18.7054 10.6667 16.5C10.6667 14.2947 8.87208 12.5 6.66675 12.5ZM25.3334 5.83335C26.0707 5.83335 26.6667 6.42935 26.6667 7.16669C26.6667 7.90402 26.0707 8.50002 25.3334 8.50002C24.5961 8.50002 24.0001 7.90402 24.0001 7.16669C24.0001 6.42935 24.5961 5.83335 25.3334 5.83335ZM25.3334 11.1667C27.5387 11.1667 29.3334 9.37202 29.3334 7.16669C29.3334 4.96135 27.5387 3.16669 25.3334 3.16669C23.1281 3.16669 21.3334 4.96135 21.3334 7.16669C21.3334 9.37202 23.1281 11.1667 25.3334 11.1667ZM16.0001 8.50002C15.2627 8.50002 14.6667 7.90269 14.6667 7.16669C14.6667 6.42935 15.2627 5.83335 16.0001 5.83335C16.7374 5.83335 17.3334 6.42935 17.3334 7.16669C17.3334 7.90269 16.7374 8.50002 16.0001 8.50002ZM16.0001 3.16669C13.7947 3.16669 12.0001 4.96135 12.0001 7.16669C12.0001 9.37202 13.7947 11.1667 16.0001 11.1667C18.2054 11.1667 20.0001 9.37202 20.0001 7.16669C20.0001 4.96135 18.2054 3.16669 16.0001 3.16669ZM6.66675 8.50002C5.92941 8.50002 5.33341 7.90402 5.33341 7.16669C5.33341 6.42935 5.92941 5.83335 6.66675 5.83335C7.40408 5.83335 8.00008 6.42935 8.00008 7.16669C8.00008 7.90402 7.40408 8.50002 6.66675 8.50002ZM6.66675 3.16669C4.46141 3.16669 2.66675 4.96135 2.66675 7.16669C2.66675 9.37202 4.46141 11.1667 6.66675 11.1667C8.87208 11.1667 10.6667 9.37202 10.6667 7.16669C10.6667 4.96135 8.87208 3.16669 6.66675 3.16669Z" fill="white"/>
</mask>
<g mask="url(#mask0_301_998)">
<rect y="0.5" width="32" height="32" fill="white"/>
</g>
</svg>
